<mxfile host="Electron" modified="2023-12-06T12:42:19.183Z" agent="Mozilla/5.0 (Windows NT 10.0; Win64; x64) AppleWebKit/537.36 (KHTML, like Gecko) draw.io/22.1.2 Chrome/114.0.5735.289 Electron/25.9.4 Safari/537.36" etag="jKiQzlGqgM_7uUs1qASH" version="22.1.2" type="device">
  <diagram id="C5RBs43oDa-KdzZeNtuy" name="Page-1">
    <mxGraphModel dx="1100" dy="847" grid="1" gridSize="10" guides="1" tooltips="1" connect="1" arrows="1" fold="1" page="1" pageScale="1" pageWidth="827" pageHeight="1169" math="0" shadow="0">
      <root>
        <mxCell id="WIyWlLk6GJQsqaUBKTNV-0" />
        <mxCell id="WIyWlLk6GJQsqaUBKTNV-1" parent="WIyWlLk6GJQsqaUBKTNV-0" />
        <mxCell id="Yajwy6ldg923b2gd9uEy-9" value="" style="edgeStyle=orthogonalEdgeStyle;rounded=0;orthogonalLoop=1;jettySize=auto;html=1;" edge="1" parent="WIyWlLk6GJQsqaUBKTNV-1" source="Yajwy6ldg923b2gd9uEy-2" target="Yajwy6ldg923b2gd9uEy-4">
          <mxGeometry relative="1" as="geometry" />
        </mxCell>
        <mxCell id="Yajwy6ldg923b2gd9uEy-2" value="函数开始" style="ellipse;whiteSpace=wrap;html=1;" vertex="1" parent="WIyWlLk6GJQsqaUBKTNV-1">
          <mxGeometry x="120" y="40" width="80" height="40" as="geometry" />
        </mxCell>
        <mxCell id="Yajwy6ldg923b2gd9uEy-3" value="函数结束" style="ellipse;whiteSpace=wrap;html=1;" vertex="1" parent="WIyWlLk6GJQsqaUBKTNV-1">
          <mxGeometry x="120" y="680" width="80" height="40" as="geometry" />
        </mxCell>
        <mxCell id="Yajwy6ldg923b2gd9uEy-10" value="" style="edgeStyle=orthogonalEdgeStyle;rounded=0;orthogonalLoop=1;jettySize=auto;html=1;" edge="1" parent="WIyWlLk6GJQsqaUBKTNV-1" source="Yajwy6ldg923b2gd9uEy-4" target="Yajwy6ldg923b2gd9uEy-5">
          <mxGeometry relative="1" as="geometry" />
        </mxCell>
        <mxCell id="Yajwy6ldg923b2gd9uEy-4" value="定义 k=0 j=0" style="rounded=0;whiteSpace=wrap;html=1;" vertex="1" parent="WIyWlLk6GJQsqaUBKTNV-1">
          <mxGeometry x="120" y="120" width="80" height="40" as="geometry" />
        </mxCell>
        <mxCell id="Yajwy6ldg923b2gd9uEy-11" value="" style="edgeStyle=orthogonalEdgeStyle;rounded=0;orthogonalLoop=1;jettySize=auto;html=1;" edge="1" parent="WIyWlLk6GJQsqaUBKTNV-1" source="Yajwy6ldg923b2gd9uEy-5" target="Yajwy6ldg923b2gd9uEy-6">
          <mxGeometry relative="1" as="geometry" />
        </mxCell>
        <mxCell id="Yajwy6ldg923b2gd9uEy-23" value="是" style="edgeLabel;html=1;align=center;verticalAlign=middle;resizable=0;points=[];" vertex="1" connectable="0" parent="Yajwy6ldg923b2gd9uEy-11">
          <mxGeometry x="-0.1178" relative="1" as="geometry">
            <mxPoint as="offset" />
          </mxGeometry>
        </mxCell>
        <mxCell id="Yajwy6ldg923b2gd9uEy-16" style="edgeStyle=orthogonalEdgeStyle;rounded=0;orthogonalLoop=1;jettySize=auto;html=1;entryX=1;entryY=0.5;entryDx=0;entryDy=0;" edge="1" parent="WIyWlLk6GJQsqaUBKTNV-1" source="Yajwy6ldg923b2gd9uEy-5" target="Yajwy6ldg923b2gd9uEy-13">
          <mxGeometry relative="1" as="geometry">
            <Array as="points">
              <mxPoint x="280" y="220" />
              <mxPoint x="280" y="460" />
            </Array>
          </mxGeometry>
        </mxCell>
        <mxCell id="Yajwy6ldg923b2gd9uEy-24" value="否" style="edgeLabel;html=1;align=center;verticalAlign=middle;resizable=0;points=[];" vertex="1" connectable="0" parent="Yajwy6ldg923b2gd9uEy-16">
          <mxGeometry x="-0.8383" y="-1" relative="1" as="geometry">
            <mxPoint as="offset" />
          </mxGeometry>
        </mxCell>
        <mxCell id="Yajwy6ldg923b2gd9uEy-5" value="x＞3 且 z＜10" style="rhombus;whiteSpace=wrap;html=1;" vertex="1" parent="WIyWlLk6GJQsqaUBKTNV-1">
          <mxGeometry x="100" y="200" width="120" height="40" as="geometry" />
        </mxCell>
        <mxCell id="Yajwy6ldg923b2gd9uEy-12" value="" style="edgeStyle=orthogonalEdgeStyle;rounded=0;orthogonalLoop=1;jettySize=auto;html=1;" edge="1" parent="WIyWlLk6GJQsqaUBKTNV-1" source="Yajwy6ldg923b2gd9uEy-6" target="Yajwy6ldg923b2gd9uEy-7">
          <mxGeometry relative="1" as="geometry" />
        </mxCell>
        <mxCell id="Yajwy6ldg923b2gd9uEy-6" value="赋 k 为 x * y - 1" style="rounded=0;whiteSpace=wrap;html=1;" vertex="1" parent="WIyWlLk6GJQsqaUBKTNV-1">
          <mxGeometry x="100" y="280" width="120" height="40" as="geometry" />
        </mxCell>
        <mxCell id="Yajwy6ldg923b2gd9uEy-15" value="" style="edgeStyle=orthogonalEdgeStyle;rounded=0;orthogonalLoop=1;jettySize=auto;html=1;" edge="1" parent="WIyWlLk6GJQsqaUBKTNV-1" source="Yajwy6ldg923b2gd9uEy-7" target="Yajwy6ldg923b2gd9uEy-13">
          <mxGeometry relative="1" as="geometry" />
        </mxCell>
        <mxCell id="Yajwy6ldg923b2gd9uEy-7" value="赋 j 为 k - z" style="rounded=0;whiteSpace=wrap;html=1;" vertex="1" parent="WIyWlLk6GJQsqaUBKTNV-1">
          <mxGeometry x="120" y="360" width="80" height="40" as="geometry" />
        </mxCell>
        <mxCell id="Yajwy6ldg923b2gd9uEy-17" value="" style="edgeStyle=orthogonalEdgeStyle;rounded=0;orthogonalLoop=1;jettySize=auto;html=1;" edge="1" parent="WIyWlLk6GJQsqaUBKTNV-1" source="Yajwy6ldg923b2gd9uEy-13" target="Yajwy6ldg923b2gd9uEy-14">
          <mxGeometry relative="1" as="geometry" />
        </mxCell>
        <mxCell id="Yajwy6ldg923b2gd9uEy-22" value="是" style="edgeLabel;html=1;align=center;verticalAlign=middle;resizable=0;points=[];" vertex="1" connectable="0" parent="Yajwy6ldg923b2gd9uEy-17">
          <mxGeometry x="-0.1944" y="-1" relative="1" as="geometry">
            <mxPoint as="offset" />
          </mxGeometry>
        </mxCell>
        <mxCell id="Yajwy6ldg923b2gd9uEy-21" style="edgeStyle=orthogonalEdgeStyle;rounded=0;orthogonalLoop=1;jettySize=auto;html=1;entryX=0;entryY=0.5;entryDx=0;entryDy=0;" edge="1" parent="WIyWlLk6GJQsqaUBKTNV-1" source="Yajwy6ldg923b2gd9uEy-13" target="Yajwy6ldg923b2gd9uEy-3">
          <mxGeometry relative="1" as="geometry">
            <Array as="points">
              <mxPoint x="40" y="460" />
              <mxPoint x="40" y="700" />
            </Array>
          </mxGeometry>
        </mxCell>
        <mxCell id="Yajwy6ldg923b2gd9uEy-25" value="否" style="edgeLabel;html=1;align=center;verticalAlign=middle;resizable=0;points=[];" vertex="1" connectable="0" parent="Yajwy6ldg923b2gd9uEy-21">
          <mxGeometry x="-0.8358" relative="1" as="geometry">
            <mxPoint as="offset" />
          </mxGeometry>
        </mxCell>
        <mxCell id="Yajwy6ldg923b2gd9uEy-13" value="x＝4 或 y ＞ 5" style="rhombus;whiteSpace=wrap;html=1;" vertex="1" parent="WIyWlLk6GJQsqaUBKTNV-1">
          <mxGeometry x="100" y="440" width="120" height="40" as="geometry" />
        </mxCell>
        <mxCell id="Yajwy6ldg923b2gd9uEy-19" value="" style="edgeStyle=orthogonalEdgeStyle;rounded=0;orthogonalLoop=1;jettySize=auto;html=1;" edge="1" parent="WIyWlLk6GJQsqaUBKTNV-1" source="Yajwy6ldg923b2gd9uEy-14" target="Yajwy6ldg923b2gd9uEy-18">
          <mxGeometry relative="1" as="geometry" />
        </mxCell>
        <mxCell id="Yajwy6ldg923b2gd9uEy-14" value="赋 j 为 x * y + 10" style="rounded=0;whiteSpace=wrap;html=1;" vertex="1" parent="WIyWlLk6GJQsqaUBKTNV-1">
          <mxGeometry x="100" y="520" width="120" height="40" as="geometry" />
        </mxCell>
        <mxCell id="Yajwy6ldg923b2gd9uEy-20" value="" style="edgeStyle=orthogonalEdgeStyle;rounded=0;orthogonalLoop=1;jettySize=auto;html=1;" edge="1" parent="WIyWlLk6GJQsqaUBKTNV-1" source="Yajwy6ldg923b2gd9uEy-18" target="Yajwy6ldg923b2gd9uEy-3">
          <mxGeometry relative="1" as="geometry" />
        </mxCell>
        <mxCell id="Yajwy6ldg923b2gd9uEy-18" value="赋 j 为 j 模 3" style="rounded=0;whiteSpace=wrap;html=1;" vertex="1" parent="WIyWlLk6GJQsqaUBKTNV-1">
          <mxGeometry x="100" y="600" width="120" height="40" as="geometry" />
        </mxCell>
      </root>
    </mxGraphModel>
  </diagram>
</mxfile>
